<?xml version="1.0" encoding="UTF-8"?>
<svg id="Layer_2" data-name="Layer 2" xmlns="http://www.w3.org/2000/svg" xmlns:xlink="http://www.w3.org/1999/xlink" viewBox="0 0 381 333">
  <defs>
    <style>
      .cls-1 {
        fill: #fff;
      }

      .cls-2 {
        fill: #49aed7;
        filter: url(#drop-shadow-1);
      }
    </style>
    <filter id="drop-shadow-1" filterUnits="userSpaceOnUse">
      <feOffset dx="0" dy="0"/>
      <feGaussianBlur result="blur" stdDeviation="5"/>
      <feFlood flood-color="#000" flood-opacity=".15"/>
      <feComposite in2="blur" operator="in"/>
      <feComposite in="SourceGraphic"/>
    </filter>
  </defs>
  <g id="Layer_1-2" data-name="Layer 1">
    <path id="path1234" class="cls-2" d="m360.76,165.43l-68.73.49,5.63.58,44.32,1.62-3.16.8,25.04,1.89-65.8-2.14,44.68,3.09-48.61-2.26,52.72,4.37-9.03.24-36.88-2.47.26.59,49.98,5.89-56.87-5.54,59.01,7.77-53.68-6.04-2.09.27,19.41,3.41,14.15,2.93-1.74.56,6.75,1.97,4.9,1.81-54.93-9.58,46.72,9.76,3.52,1.58-22.58-3.99,6.41,2.14-28.53-5.91,31.76,8.21-26.05-5.76-14.14-3.12,53.45,14.84-52.68-13.75,17.59,5.54,61.41,18.7-6.68-.86-41.9-11.99,45.55,15.35-68.02-21.27,46.89,16.39,17.83,7.15-8.95-2.01-55.17-19.11,51.08,19.73-39.97-14.32-3.21-.59-10.82-3.68,5.85,2.95,19.84,8.95-13.13-4.85,11.01,5.52,9.52,5.06,4.9,3.12-41.11-18.16,4.7,2.74-.18.54,30.42,15.64,29.33,15.58-45.63-22.12,30.42,16.61-20.05-9.56,5.63,3.93,2.62,2.37-2.86-.59-23.62-12.53,16.12,10.06-13.44-7.05,23.64,14.96.52,1.33-8.36-4.15-17.25-9.93-26.1-15.93,2.18,1.93,11.14,7.91,36.08,24.9-16.29-10.06,22.92,16.78-12.86-7.94,9.43,7.76-33.64-23.2-3.98-2.15,7.39,6.25,6.18,5.52,12.26,10.3-.49.65,17.61,14.93-36.03-27.52,7.76,7.17,25.87,22.21-18.42-14.07,19.81,17.79-50.23-41.68,38.86,34.47-41.32-35.05-1.06-.23,40.48,37.26-27.33-23.74,38.55,36.59-26.85-23.78-11.62-9.96,31.93,31.72-50.16-47.55,7.11,7.74,15.74,16.61-11.46-10.57,39.38,41.35-11.97-11-32.44-32.86,29.64,32.59-12.36-12.07-3.54-2.71-.43.65,13.61,16.37-33.79-37-2.95-2.42,17.94,21.66,17.71,21.94,6.02,8.64-11.99-12.99-14.16-15.95,28.44,36.31-12.62-14.19-19.49-23.25-15.13-18.24,4.5,6.78,24.43,33.12-33.65-43.4,7.02,10.38-5.89-6.93,37.68,52.95-45.87-62.46,4.04,6.55,4,6.63,14.36,21.82,25.5,38.65-18.58-25.78-12.74-17.66,8.92,14.79-21.52-31.74,24.89,39.92-.39.88-19.79-30.01,9.42,16.48,22.05,37.37-19.71-30.61,7.81,14.59,1.33,3.91-21.21-34.6-9.69-15.51,33.63,60.44-24.79-42.37-13.36-22.7,26.55,49.77,11.89,23.84-2.92-3.31-.36,1.32-3.13-4-5.59-8.9-28.44-54.42,1.22,3.77,31.15,64.74-6.43-11.01-2.86-3.96-18.6-37.38,9.5,21.89-13.08-26.66,23.12,52.56,1.04,4.69-24.12-52.55,19.41,46.31-24.34-54.49,19.39,47.42,6.24,17.17-7.83-16.49,4.98,14.6-4.14-7.93-3.59-6.78-16.74-40.94.46,3.01-6.78-16.41,19.28,53.99-8.35-20.55,8.76,26.74-13.1-34.7-2.43-4.91-3-6.7-2.45-5.48,5.71,19.19,3.74,13.82,5.07,18.46,5.23,19.49-9.39-27.27-4.74-12.83,2.95,12.56-3.71-9.83-12.36-40.24,21.33,78.05-3.79-10.55-12.07-41.1,11.86,47.35-11.33-39.94,6.54,28.65.85,6.95-18.26-70.94,15.95,68.79-3.85-12.43-11.47-46.66.61,5.79,7.98,39.21-10.25-44.02-.96-1.6,14.75,75.29-12.04-55.81,8.17,45.91-7.64-35.82-1.99-6.79.21,5.04,2.42,18.19-4.4-21.23,4.71,32.94.86,11.12-3.17-14.7-1.88-6.94,2.94,25.69-.84.53-6.14-38.04,1.62,18.07,2.41,26.24-9.43-70.35,2.18,24.22-4.73-35.49.03,5.8,4.82,52.65-1.05-2.12.18,11.32-2.23-15.42-2.13-15.82.04,10.14v10.54s-3.1-32.65-3.1-32.65l-1.77-17.51-.11,8.62.94,28.97.79,30.74-1.26-6.43-3.26-58.71-.91-7.71-.32,8.62-.79-5.27.58,50.49-.89-3.76-.39,29.38-1.3-35.44-.77,2.22-.79-34.91-.63-3.16-1.11,52.11-.84,3.3-.11-43.82-.43-9-.31-14.64-.77,8.13-2.75,59.63,1.1-49.6-1.26,13.54-.04-12.88-1.64,17.83.38-18.89.64-19.28-5.41,69.83,2.45-45.34-1.85,15.14-.8.68-1.64,10.25.38-12.69.91-17.25-6.17,54.98,4.42-50.72-3.15,22.24-4.6,33.47-.39-5.03,7.25-65.31-5.6,38.38,1.15-14.36,2.32-21.87.34-6.31-12.24,78.2,3.08-26.73-4.48,22.57,9.53-63.84,2.04-15.7-5.67,29.41,3.29-22.32-8.07,40.51,1.56-12.55-7.65,35.87,11.83-64.75-4.09,17.37-7.74,33.95-5.9,23.4,8.71-44.28.67-6.43-8.26,32.93-2.43,6.63,11.15-50.51-6.09,22.05,4.03-19.34-15.37,57.82,19.58-79.6-19.73,72.51.27-4.51,1.56-9.25,4.36-18.67,11.36-42.65-11.85,38.79,11.09-40.04-2.84,7.47-15.78,49.47,8.56-30.28-10.45,30.57-3.69,8.73.36-4.11,13.56-43.27-13.01,36.19,19.41-58.85-11.2,30.53,7.02-21.7-16.07,42.48-12.1,30.27,27.92-77.02-5.37,12.46-10.86,26.39-6.44,14.25,14.75-39.31,3.34-10.03-23.21,55.05,5.51-15.5-3.56,6.3,11.95-29.96-7,14.39-16.16,34.84,19.04-45.05,8.6-20.68-26.18,55.65,15.68-35.9-12.66,25.21,12.19-27.41,2.41-6.59-20.36,39.91,5.14-12.31-11.73,21.34,13.12-27.68,17.31-35.16-23.68,43.85-12.72,22.11,3.43-8.37,30.87-58.54-29.62,52.34,32.79-60.49-9.11,15-9.44,15.23-24.48,40.67,29.81-52.6,5.27-10.09-18.39,29.31-20.99,32.75,21.41-36.4-4.9,6.36-15.53,23.03-2.67,2.46,29.79-47.74-25.94,38.2-2.24,1.62,43.41-65.97-39.01,56.26,19.2-29.35,12.23-18.66-31.1,42.89-6.76,7.99,33.18-47.29-13.68,17.65-29.73,38.69,30.6-42.22-12.87,15.7,29.36-39.37-25.71,32.05-17.12,20.42,35.97-46.5-41.56,50.52,50.02-62.61-36.57,43.3,10.53-13.83,2.7-4.27-20.54,22.79-9.25,9.22,13.97-17.25-5.83,5.31,40.6-46.1-13.26,13.7-25.5,26.57,36.77-40.34-28.44,29.15-18.89,18.55,18.72-20.54,18.14-19.46-33.13,32.35,35.19-35.97-30.1,28.57-13.2,11.59-8.63,6.93,52.72-50.82-7.36,6.09.51-1.26-19.28,16.6-13.28,10.79,31.46-28.73,1.98-2.46,5-4.96-2.54,1.44-17.15,13.57-12.09,9.05-23.22,17.79,29.32-24.63-39.29,30.03,61.19-48.83-19.21,14.04-13.11,9.05,25.41-19.88-45.3,32.49,14.56-11.66-13.48,8.56,33.73-24.78,2.21-2.31-38.32,25.36-5.79,2.74,27.44-19.3,27.56-18.78-13.1,7.75-51.45,31.63,10.3-7.62-9.02,4.41,31.77-20.27,25.31-15.81-22.1,12.19,20.67-12.59-47.67,26.04-1.55-.23,4.79-3.68,26.9-15.32-7.3,3.03-29.63,14.32,6.19-4.21,43.28-22.38,17.36-9.04-10.93,4.78-40.16,18.07,26.24-12.89,8.27-4.36-32.64,13.68-8.77,2.87,26.57-12.11-26.12,9.96-5.86,1.4,60.71-24.72-22.64,8.2-24.07,8.32,19.45-7.95-8.72,2.44-30.53,9.84,40.45-14.69-56.74,18.02,57.62-19.62-8.79,2.1-44.23,12.68,25.23-8.53,10.12-3.76,10.37-3.64,9.01-3.11,24.3-6.89-59.12,14.42,46.02-12.05,3.83-1.39-47.37,10.18,35.48-8.52,13.68-3.4-76.52,14.8,25.67-6,37.15-7.65,12.76-2.77-64.01,10.13-11.66.84,38.67-6.81-31.53,3.69,71.52-10.45-79.97,9.43,63.5-8.4,6.52-1.23-64.4,5.84,16.23-2.49,21.57-2.66,17.96-2.04,10.41-1.24-1.79-.41-22.92.66-12.05-.19-28.08.14,15.92-1.4,19.37-1.2-17.52-.58,50.93-.86-46.02-.82,13.26-.61,24.43-.12-36.94-1.72-15.1-1.46,56.89,1.86,6.54-.1-72.01-5.12-8.9-1.71,31.13,1.49-29.68-3.54,83.61,7.2-9.17-1.37-31.23-4.08-8.26-1.75,28.81,3.02-3.06-.99-11.79-2.34h4.54s-55.92-9.86-55.92-9.86l86.61,13.88-12.38-2.64-23.77-5.02-37.69-8.24,23.98,3.98,8.81,1.08,39.22,8.07-24.27-6.1,6.72,1.01-64.94-16.86,15.97,2.99,54.95,13.73,4.45.68-39.86-11.87-9.82-3.74-17.45-6.21,64.69,19.07-17.74-6.24,26.02,7.89-60.64-20.98,45.5,14.78-35.03-13.09-11.17-4.99-15.74-6.96,50.97,18.4,31.03,11.44-61.53-25.11,14.54,4.94-21.46-9.86,65.34,26.88-59.06-26.33,23.98,9.68,34.44,14.89-52.68-25.03,46.64,21.15-16.43-8.54-11.74-6.53-33.06-17.49,73.35,36.48-45.55-24.3-22.53-12.88,50.31,26.08-21.79-12.68,21.81,11.34.69-.24-27.06-16.41,24.01,13.23,2.32.66-12.55-8.37,4.16,1.75-39.53-25.7,32.03,19.28-27.32-18.67,43.45,27.53-50.6-34.72,62.61,41.43-36.02-25.58,38.51,26-35.22-25.71,28.83,19.85-51-38.11,11.78,7.46,2.49.76,33.31,24.36-2.55-2.75-39.04-31.57,46.8,36.13-10.02-8.87.46-.51,14.23,10.99,11.37,8.87-15.56-13.92-37.87-33.62-11.6-11.46,37.1,31.67-26.23-24.65,3.04,1.49,49.92,44.98-59.95-56.95,51.52,47.57-41.89-41.15,44.85,42.46-7.99-8.71-18.5-19.43,19.62,18.76-9.75-10.93,16.5,16.08,1.16.38-12.19-13.82,10.3,10.1,5.53,5.2,8.78,8.83-52.31-59.32,49.45,54.59-50.31-58.47,26.67,29.46-18.77-23.25-.83-2.37,33.62,39.02-2.94-4.54-21.67-27.85,3.17,2.57-14.38-19.52,46.99,58.6-42.13-55.53,26.27,32.87,20.37,25.88-7.93-11.53-29.36-40.97,11.87,14.83,22.66,30.23-17.22-25.25,9.83,12.76,5.66,7.08-32.11-48.15,22.02,31.01,12.33,17.19,3.87,4.85-23.92-37.82,25.38,38.01-36.36-58.38,24.38,37.17.91.16-13.02-22.64,16.67,26.02-12.55-22.34,7.24,10.73-3.2-6.97,11.44,18.39-3.34-7.23-20.9-38.75,17.53,29.78,9.38,15.62-26.95-51.4,33.84,61.62-6.85-14.33-12.74-26.05,13.6,24.78-17.62-36.44,15.06,28.24,6.75,12.07-16.48-35.46,4.97,8.41,17.31,34.78-6.38-15.05-5.67-14.02,17.98,37.92-1.41-4.57-7.91-19.37,2.68,4.44-15.78-38.57,21.31,48.38-25.41-62.66,29.12,68.52-.95-3.9-15.41-40.25-9.71-26.95-1.04-5.37,5.26,11.15,22.75,58.21.11-1.47-19.36-55.1,10.31,26.18-10.62-32.49-1.49-7.19,15.52,42.66,2.79,6.01,3.16,7.39,1.04,1.01,7.15,20.32-24.14-79.06,16.96,52.01-6.72-24.67,12.56,39.5-9.76-35.73-.59-4.97,10.7,35.06-10.46-40.36,8.31,27.55-4.1-18.21-2.34-12.2,17.01,63.49-11.55-48.62-6.77-31.05,19.18,76.43-7.83-35.99,5.25,19.71,2.88,9.93-8.81-42.96-5.08-27.64,16.98,77.17-4.92-27.07-1.98-13.48-7.51-42.76,7.84,36.47,4.55,20.58-6.71-41.5.25-3.73,1.2,1.86,2.11,7.39,2,7.17,4.14,21.6-5.03-38.48,3.47,17.87,4.72,28-3.61-31.66-.05-6.75,3.13,18.13-2.6-27.92.9-.06,7.73,61.51-3.3-36.67,1.68,8.86,1.82,11.22.23-4.95,2.46,20.01-1.22-22.01,3.25,32.8-1.18-24.05,1.6,13.3-.39-15.7,2.26,26.38-.81-24.62.62-1.29-1.8-54.24,3.74,68.11.25-9.73.4-8.14-.67-50.27,1.63,30.96.22-31.27,1.43,36.07,1.06,32.22.39-49.46.86,21.6.8-11.76,1.01-23.19.88,2.55-.45,72.21,1.96-61.39.72,4.92.46,11.28.92-4.16.4,9.41,2.04-28.35-1.07,38.54-1.16,33.89.76-3.95,5.24-72.66-4.25,74.6.36,2.31,4.7-52.69-.94,20.92-.93,18.46,3.13-27.36,2.98-23.13,2.41-15.31-4.14,47.41,6.17-49.18-4.05,42.83,4.33-29.85-3.49,34.73,5.11-33.81-8.12,66.83,1.28-5.65,11.98-78.73-11.73,84.77,7.94-47.8-5.37,38.83,6.17-34.2,8.01-42.93-7.45,48.46,8.62-44.2,1.82-4.88-1.28,12.24-2.74,18.82-7.2,40.59,1.91-6.38,6.15-26.39,7.91-33.23-.98,8.78-14.74,70.04,15.3-64.37,4.31-14.7,1.54-2.51.88.52-7.78,35.29-5.27,23.87,1.7-3.9,13.81-49.6-8.86,36.57,3.72-10.7,4.49-13,2.09-4.17-4.28,17.92,1.89-3.5-13.44,47.45,10.68-32.84-3.98,15.25,1.71-3.12,16.39-48.41-14.72,47.76.16,1.72-6.17,20.28,10.48-28.53,12.29-32.69,4.88-10.87-27.54,78.59,4.69-11.13-1.01,4.43,16.21-40.9-3.21,10.58.72.25-5.94,16.97-8.12,21.86,19.9-47.07,4.08-7.71-13.09,33.17-2.43,7.4.61.27-7.33,18.15,30.39-66.85-26.55,60.87,31.45-67.17-9.03,21.68.02,1.91-11.06,25.01.65.24,19.3-37.72-17.37,36.84-.59,2.66,22.71-42.84-16.9,34.57-3.77,8.71,6.62-11,5.33-8.32,9.58-15.93-17.54,33.61,26.42-45.75-15.65,29.52.62.54-14.95,27.24-.82,2.67,24.68-40.18-2.25,5.36-4.55,9.04-18.93,32.09,29.67-46.22-24.72,40.57-9.59,15.94,18.85-27.96,26.04-38.29-33.54,52.07,18.59-26.46,1.56-.89-29.5,44.15,10.95-14.89,15.95-21.42-22.93,33.26,2.64-2.79,7.43-9.17,41.48-54.68-12.42,18.17-10.23,14.88,16.84-20.59-36.21,47.92,43.98-54.65-6.6,9.82-43.37,54.95,13.87-16.07,19.86-22.92,11.42-12.3-32.67,39.81,31.13-35.22-4.7,6.77,10.07-10.15-3.82,5.69-42.93,48.79,14.1-14.73.84.06,3.73-3.07,38.39-39.4-31.97,34.59,37.47-37.4-2.5,4.01-48.16,49.57,41.58-40.26-26.37,26.97,1.94-.92-15.4,15.61,14.26-12.59-2.51,3.26-10.07,10.08,17.68-15.18-11.15,10.88,33.01-28.17-13.35,12.75,17.88-14.3,5.77-3.6-47.72,41.02-7.12,6.52,57.59-45.95-8.47,7.96-44.97,36.56,7.35-4.99,53.61-40.31-11.03,9.56-34.77,27.04,40.86-29.15-23.84,18.41-.68,1.42,26.07-17.34,7.34-3.89-1.85,2.45-66.16,45.56,31.56-20.22,28.25-17.52-48.81,32.32,23.79-14.3-8.55,6.17,4.16-1.77.98.2-8.23,5.66,31.86-17.72-48.2,28.45,13.68-7.09,16.31-8.31,7.96-3.49-37.23,20.63.58.23,48.85-24.46-36.37,19.25,6.54-2.56,54.29-25.58-76.62,37.59,52.98-24.18,3.84-.77-49.26,22.92,55.55-23.73,15.98-5.88-17.07,8.4-32.56,14.36,48.32-18.66-76.46,31.12,19.18-6.92,56.96-20.6-40.15,15.72,6.09-1.4-31.52,11.75,42.01-13.67-36.8,13.04,64.21-20.07-41.56,14.11-37.77,12.17,16.52-4.38-6.52,2.34-8.79,2.93,43.45-11.14,24.16-5.46,4.31-.06-59.81,15.47,72.73-16.37-61.15,14.85,53.06-10.88,2.26.59.17,1.14-77.44,15.79,36.12-6.17-28.39,5.65,39.82-6.09-28.47,5.28,58.94-8.16-2.6,1.43-41.4,6.5,6.34-.1-38.98,5.22,41.96-4.04,34.66-2.64-59.2,6.39,44.41-3.07,14.85-.16-63.31,5.19,31.6-1.27-48.14,3.14,2.11.31,72.96-1.97,7.18.83-6.28,1.17-7.38,1.07,11.72.96Z"/>
    <path id="path1242" class="cls-1" d="m308.33,164.09l-86.01.26-3.05.23,17.34.56,14.72.71,22.72,1.13-8.71.26,18.84,1.32-18.46-.25,43.71,2.91-43.04-1.81-49.98-2.8,54.27,4.18-4.97.16-31.78-2.19,3.6.66,13.91,1.71,36.66,4.27-29.3-2.56-32.35-3.31,78.31,9.96,1.53.98-76.93-9.67,38.36,5.76-50.56-6.95,53.89,8.57-16.76-2.13-36.08-5.61,38.95,7.05,10.28,2.35-35.31-6.05,12.87,2.82,63.27,13.11-47.87-9.1-35.57-7.1,66.27,14.9-20.26-3.89-41.89-9.19,44.02,10.88,29.2,7.8-12.61-2.39-42.98-10.45,12.51,3.77-35.62-9.22,76.78,21.78-79.35-21.96,41.42,12.44-10.05-2.47-28.9-8.44,45.15,14.52,33.46,11.34-11.71-3.01-16.43-4.74-52.33-17.33,80.16,28.35-9.05-2.4-2.62-.14-37.05-12.98,36.23,14.25-28.44-10.22-2.36-.36-45.21-17.59,47.01,19.44,9.27,4.42,1.81,1.41,10.16,5.08,1.58,1.41-52.68-22.74,32.23,14.99,26.04,12.65-4.51-1.34,14.61,7.75-59.06-27.72,33.39,16.92-18.47-8.54,37.58,19.7-47.28-23.58,36.29,19.6-52.82-27.42,29.35,16.29-17.62-9.08,28.19,16.25-26.78-14.5-27.81-15.49,3.38,2.19,34.32,20.67,5.92,4.16-30.29-17.86,41.53,26.14-36.95-22.53,15.94,10.63,31,20.69-18.04-11-37.45-24.27,12.37,8.74,36.55,25.58-5.78-3.19-14.48-9.44-4.65-2.67-24.46-17.12,11.13,8.56,8.21,6.61.12.68-12.31-8.82,50.57,39.65-62.89-48.42,58.31,46.88-42.79-33.64-6.72-5.01,20.01,17.09,6.79,6.4,4.57,4.71-24.75-20.65,32.68,29.27-45.26-39.35,45.64,41.55,10.86,10.88-49.97-45.14,25.61,24.56-10.2-8.88-.79-.05,21.64,21.81-41.35-39.89,27.06,27.61-18.62-18.06,26.94,28.35,4.41,5.64,3.28,4.52,1.75,3.03-11.72-11.65,3.36,4.76-43.46-47.55,15.32,17.77-.13.53,9.22,11.42-14.28-16.02,14.92,18.49-32.21-38.33,13.28,16.78,28.82,36.62-27.51-33.84,32.09,42,3.86,6.24-53.24-69.26,21.77,29.6-14.52-19.09,2.54,4.07,41.35,58.73-15.24-20.42-11.43-15.43,11.4,17.64,10.86,17.31-41.83-61.79,7.36,11.78,4.6,7.85-11.29-17.1,30.69,49.96-18.38-28.74-15.02-24.07,5.8,10.32-7.65-12.59,35.19,62.01-5.19-7.71-24.7-43.22,30.14,56.14-29.12-52.84-9.8-17.87,35.25,68.61-31.27-59.87,10,20.63,5.47,12.13-7.98-15.39,23.45,50.62-21.53-44.54-12.87-27.29,33.18,75.06-5.05-9.57-19.18-42.84,6.01,15.4,11.41,29.08-29.25-70.45-.49-.83-1.51-3.56,23.68,63.39-4.57-10.54-11.76-30.94,6.37,19.1-1.01-1.48,1.46,5.82,5.22,17.61-19.46-58.87,7.35,24.22-7.16-22.23,14.01,48.15-3.46-10.02-8.98-30.43,6.51,25.18-.54-.37,4.1,17.87,1.8,9.75-2-5.58-5.83-22.42,8.1,38.27.8,6.98,1.01,8.84-6.35-27.5,2.62,16.64,1.34,11.51-.56,1.87-10.6-56.95,1.05,9.07.89,8.89-2.08-10.11,3.89,31.23-3.2-18.56-4.03-27.46,5.28,47.99-2.16-13.14-4.94-41.5-2.32-20.16,5.23,60.4,1.96,32.19-6.44-76.23,2.58,43.88-.45,3.16-3-46.38.97,29.67-1.24-19.74-.92-17.26-.22.43.48,48.39-.42,25.47-.82-82.81-.73,71.65-.38-21.3-1.06,22.42-.92,5.74,2.1-77.85-2.95,62.85-.99,7.1,2.26-51.05-3.17,42.88-.94,4.31-1.78,13.39-.55-2.89,2.59-34.8,1.11-15.63-.51.89-6.06,48.31-2.41,12.97.9-12.93,7.35-58.07-10.36,67.69,2.89-23.74,10.07-65.92-1.04,5.31-14,76.93,8.83-51.43-6.2,30.02-3.13,12.4.48-5.88.95-7.42,4.79-24.17-5.46,21.56,4.58-21.61-6.15,22.98,1.95-10.05,7.62-30.93-8.52,30.15-8.55,28.56-3.61,9.99,19.62-69.35,4.67-16.22-1.84,5.16-3.82,11.36,1.83-6.64-15.77,46.13-4.88,12.22-1.22,1.42,8.28-25.08-6.85,17.04-8.58,20.72,10.64-29.73-13.03,31.49,14.15-37.44,18-45.18-22.32,52.67,7.26-18.48-4.44,8.98-17.72,38.47.85-4,26.36-58.76-5.39,10.58,14.58-31.18-35.11,71.02,28.47-58.67-24.68,47.93,12.06-24.79-11.9,21.6-6.65,10.91,17.73-34.03,9.52-18.09-20.05,34.86,19.78-35.73-26.18,44.29-1.55,1.29,33.94-57.79-15.26,24.53-22.34,35.16,30.43-49.6-9.68,14.53-20.12,30.08,13.88-22.24-15.36,21.96,30.26-45.61-33.15,47.29,31.95-46.72.26-.9,7.78-11.29-44.51,60.29,10.65-15.55,3.84-6.08-8.95,10.76,33.55-44.2-44.86,56.37,33.49-43.04-30.63,37.08,45.7-56.62-7.04,8.04,2.1-2.93-15.61,17.74,16.31-19.47-31.4,35.26,15.9-18.63-20.56,22.02,43.01-47.68-60.68,64.91,33.03-36.17-29.94,30.62,35.56-37.71-38.42,38.41,41.76-42.88-2.72,2.14,10.91-11.12-11.79,10.9,15.48-15.21-33.03,30.63-31.34,28.28,54.8-51.16-2.7,2.01,15.12-13.95-34.84,30.3,23.16-20.73-56.72,48.02,24.36-21.56,13.71-12.18-4.52,3.1,4.03-3.91-32.47,25.3-5.69,3.55,6.17-5.78,62.42-48.71-9.3,6.75,1.32-1.28-35.15,25.44,25.49-19.17-32.63,22.9-15.81,10.4,63.91-45.36-1.02.48-20.9,13.88-1.19.3-47.39,30.66,46.99-31.36-13.88,8.41-31.37,19.16,46.98-30.04-50.03,30.13,2.48-2.37,36.77-22.68,6.37-4.24,16.27-9.87,5.53-3.43-63.92,35.43,53.57-30.3-16.28,8.46-15.36,7.71-22.8,11.35-15.76,7.35,70.1-36.6-11.13,5.23-20.91,9.87-28.35,13.16,5.46-3.43-1.2-.21,23.05-11.44,15-7.4-37.31,16.19,69.63-31.31-17.82,7.45-37.31,15.43,45.83-19.69-31.99,12.78,8.09-3.77-5.42,1.66-18.94,6.81-3.6.73,32.84-12.86-26.95,9.39h-1.72l-.25-.54-.51-.45-26.26,8.21,13.9-5.38,25.22-8.83,14.57-5.12-34.67,10.25,19.75-6.59-21.1,5.68,5.72-2.31-10.81,2.41,41.95-12.17v-.4s-54.43,13.74-54.43,13.74l39.6-10.8-15.35,3.29,6.87-2.26-22.76,4.76,14.89-4.09-22.48,4.31-6.78.71,22.1-5.36,41.75-8.99-18.5,3.2-19.97,3.25,48.4-9.38-40.21,6.71,15.15-3.1,1.9-.77,36.84-6.16-43.43,6.23,34.31-5.37-49.46,6.45-21.28,2.18,2.72-1.08-8.52.29,51.46-6.42-32.17,2.94-9.75.31,45.61-4.9-21.33,1.44-34.34,2.16,25.54-2.58,18.33-1.83-30.26,1.38,68.23-4.44-75.02,3.41,78.92-4.04-72.07,2.39-11.73-.31,40.39-1.71,26.09-.96-22.64-.06,30.65-.65-42.25-.28,19.14-.42-16.3-.61-45.6-1.35,1.39-.76,22.52-.11-19.61-1.36,28.86.45,53.61,1.99-46.21-2.78-31.93-2.52-1.28-.79,47.34,2.69,16.52.85-31.82-3.09-20.92-2.48,18.55,1.12,23.26,1.85-43.29-5.23,55.43,5.8,20.3,2.14-10.49-1.59-20.86-3.14,5.13.3,8.45.85-65.23-10.43,73.63,11.08-35.32-6.2-1.71-.82,10.79,1.42,17.33,2.78-11.38-2.55,23.1,4.19-32.23-6.93-43.4-9.77,5.51.44,6.13.66,17.07,3.28,19.44,4.07,32.04,7.43-64.47-16.56,8.61,1.55-12.97-4.09,40.86,10.46-28.34-8.38,23.98,6.24-35.07-10.77,14.49,3.63,33.9,9.82-18.88-6.34-7.16-2.83-37.89-13.01,9.28,2.23,3.22.33,24.32,7.77,46.34,15.95-76.1-27.96,24.55,8.3-.42-.81,57.88,21.73-89.36-35.43,83.54,32.64-72.73-29.99,34.15,13.4-8.26-4.06-19.37-9,72.44,31.02-32.34-14.66-29.39-13.83-17.77-8.92,25.42,11.11,33.07,15.11-41.74-20.62,27.53,12.83-44.15-22.6,49.6,24.34,31.04,15.61-75.33-39.87,39.68,20.35,4.75,2.05-50.28-28.22,3.39.99,72.32,40.21,1.71.65-47.59-28.08-22.62-14.11,19.94,11.13-20.55-13.28,58.64,35.46-62.57-39.84,34.15,20.9,13.78,8.28-18.09-12.43-1.3-1.59-6.66-5.21-7.51-5.99,8.09,4.76-17.44-13.1,54.13,37.74-45.45-33.36-8.93-7.53,38.89,27.96,16.24,11.62-7.82-6.45h.67s5.2,3.54,5.2,3.54l8.29,6.11-40.42-33.1,25.21,19.78,24.91,20.1-45.03-38.25,27.89,23.01-42.28-37.19,36.42,30.98-39.93-36.14,61.57,54.4-12.2-11.51-21.28-20.21-4.84-5.33,5.59,4.47,9.01,7.9,27.6,26.21-23.72-23.76,6.36,5.7-20.62-21.54,10.83,10.32-24.95-26.85,10.57,10.13,32.82,34.33-33.37-36.84,19.4,20.41,12.92,13.72-6.25-7.58,21.06,23.64-46.76-54.86,1.3.39,45.48,53.52-9.69-12.1-36.33-45.29,48.34,59.32-24.99-32.01,6.06,7.07-15.93-21.48-20.63-28.33,37.67,49.31,18.84,25.09-5.93-8.61-17.84-25.45,2.85,3.24,17.12,24.04-16.92-25.31-31.16-47.19,49.84,73.81-22.93-35.57,23.95,36.42-4.45-7.41-35.81-58.17-1.07-3.2,35.21,57.05-26.15-44.73-4.89-9.82,18.79,31.41-3.6-7.36,18.18,31.79,1.83,2.77-1.63-3.61-6.74-13.44-23.39-46.09,34.01,65.25-10.14-20.84,7.57,14.64-4.49-10.02,8.54,17.23-30.78-66.87-2.8-8.09.29-1.34,17.7,38.49,12.01,26.78-16.89-41.06-9.48-24.63-.8-4.08,19.72,47.57.14-.93,11.4,28.91-8.3-23.29,6.01,15.46-10.04-29.46-6.96-21.81,7.92,21.29-12.95-41.38,19.61,58.71-5.47-18.9,6.31,18.82-12.14-42.32-.5-4.46.81.22,19.12,67.44-7.55-29.56-11.1-45.25,15.17,57.91-15.14-64.6,13.38,53.79,7.82,33.03-6.19-29.74-11.23-55.99,4.74,19.5,10.37,49.7,3.81,18.79-11.88-67.45-2.06-15.82,14.07,81.01-2.08-14.86-5.87-41.37.42-1.5,6.3,42.84-.02-2.84-6.95-61.65,3.75,27.01,3.82,31.31-5.22-57.67,3.36,28.75-1.98-31.52,1.48,9.08,5.39,70.55-2.68-48.71-.9-29.12.44-6.55,3.42,70.73-1.01-44.89,1.55,40.74.27-5.86-.05-51.79.78,68.8.5-33.61.51-.3,1.02-23.48-.93,53.59.04,7.65,3.36-71.4-2.51,63.94,1.32-18.19.74-5.07-2.41,39.5,3.97-47.65.51.03,1.48-10.15,2.75-20.89-1.03,15.86-6.75,62.92,5.21-40.45,6.6-46.47-1.9,19.59-4.92,37.72,4.54-26.72,3.45-17.49-7.1,45.75,1.56-6.68-2.79,17.37,9.46-47.42,3.51-14.08-2.26,14.6,6.41-26.71-18.18,84.95,8.66-36.35-8.79,38.75.31-.64,17.26-66.59-6.51,27.49-2.21,9.95,12.06-41.45,2.34-5.59-10.2,37.34,7.98-24.47-7.81,27.26,2.56-6.44,6.32-17.57-14.93,46.53-3.39,10.64,5.19-13.95,22.33-60.87-21.05,59.3,21.91-56.91-16.19,44.01-5.82,16.01,16.57-40.25,11.5-26.31-24.92,61.48,5.31-11.38,7.97-17.07,2.1-3.25-16.63,38.06,30.1-64.1-15.39,34.5,11.64-22.79-12.62,27.36-12.76,26.7.74-.7-9.37,18.83,21.27-40.05-4.57,9.56,16.27-28.98,2.72-3.45-23.35,42.77-2.52,5.1,4.21-6.62-7.15,12.82,37.84-62.41-23.21,39.45,27.87-44.03-6.07,11.17-31.59,50.63,25.76-38.99-25.52,39.72,22.38-32.76,21.88-31.03-51.45,75.86,4.35-5.81,41.62-58.03-39.93,56.54,36.62-49.43-30.95,42.72,22.13-28.72,22.66-28.59-30.21,40.23-10.89,14.58-16.28,20.88,47.82-58.56-24.47,30.83-9.12,11.61,26.87-31.22-9.3,11.78,22.54-25.12,5.29-4.81-14.59,17.43-1.52,2.65,6.48-6.17-22.7,25.36,38.42-40-20.83,22.88,10.29-9.68-24.33,25.72-2.93,3.59-13.34,13.87,41.46-40.06-29.71,29.57,14.34-13.08-25.94,25.07,16.12-14.5,14.46-12.6,25.06-21.77-2.31,3.06-2.49,3.27-50.63,44.76,44.94-37.99-7.13,6.88,17.43-13.62-45,37.85,18.95-14.84,16.82-12.74-30.39,24.77,21-15.77,5.48-3.46,22.17-15.95,1.75-.3-58.79,44.22,2.69-1.53,22.68-15.78,12.76-8.33-11.06,8.45,28.68-18.95-18.92,13.69,6.65-3.71,12.62-7.5-47.92,32,15-9.14-23.58,15.45,10.16-5.93-14.86,9.53,49.67-29.6-44.3,27.06,34.63-19.86,18.94-10.26,7.68-3.5-51.35,29.58,5.42-2.53-8.25,4.99-1.41,1.15,16.81-8.45,13.97-6.69-17.84,9.73-25.21,13.13,50.77-24.74-58.05,28.87,18.14-8.42,9.08-3.89,17.69-7.73-11.24,5.68-31.12,14.36,11.15-4.63,54.8-23.28-46.86,20.56,3.73-1.14-19.65,8.4,65.14-25.83-58.88,23.9-11.9,4.95,15.64-5.75-9.69,3.9,60.15-21.59-49.78,18.45,51.58-17.72-67.27,23.76,17.18-5.56-12.35,4.43,25.61-8.01,54.42-16.7-5.36,2.48-19.84,6.73,33.03-9.1-2.92,1.69-18.01,5.88-29.7,8.82-15.72,4.7-16.4,4.65-5.52,1.67,68.04-16.53-47.04,11.98,54.84-12.42-11.89,3.45-20.59,5.18,3.88-.3,30.64-5.81,12.53-1.74-14.17,3.57-56.42,11.3-13.04,2.72,31.45-5.22,34.34-5.27-67.11,11.5,56.93-8.53-43.56,7.11,63.76-8.76-32.75,5.25-48.67,6.87,82.76-9.95-83.39,10.47h2.34s58.39-5.85,58.39-5.85l1.11.52,16.14-.86-36.78,3.88,48.85-3.35-11.04,1.56-36.21,3.17,4.98.2-5,.81-9.49.96-12.27.96,52.03-1.51-75.29,2.96,2.49.17-1.29.27,44.4-.3,48.96.21-2.67.8Z"/>
  </g>
</svg>