<?xml version="1.0" encoding="utf-8"?>
<!-- Generator: Adobe Illustrator 27.5.0, SVG Export Plug-In . SVG Version: 6.00 Build 0)  -->
<svg version="1.1" xmlns="http://www.w3.org/2000/svg" xmlns:xlink="http://www.w3.org/1999/xlink" x="0px" y="0px"
	 viewBox="0 0 562 562" style="enable-background:new 0 0 562 562;" xml:space="preserve">
<style type="text/css">
	.st0{fill:#EF4035;}
	.st1{fill:#A09F9D;}
	.st2{fill:#FFFFFF;}
	.st3{fill:#58585A;}
	.st4{fill:#58565B;}
	.st5{fill:#FFFCFF;stroke:#000000;stroke-width:3;stroke-miterlimit:10;}
	.st6{fill:#FFFEFF;stroke:#000000;stroke-width:3;stroke-miterlimit:10;}
	.st7{fill:#363638;}
	.st8{display:none;}
	.st9{display:inline;opacity:0.3;}
</style>
<g id="Layer_1">
	<circle class="st0" cx="280.5" cy="281.5" r="281"/>
	<path class="st1" d="M561.5,281.5c0,155.2-125.8,281-281,281s-281-125.8-281-281C-0.5,281.5,561.5,281.5,561.5,281.5z"/>
	<path class="st2" d="M538,394.1c-34.5,67.4-149.5,129.4-285.5,85.9S99.4,308.3,99.4,308.3s183.9-150.7,456,31.8
		C555.4,340,548.7,373.3,538,394.1z"/>
	<path class="st3" d="M561.5,272.8c0,0-261-134.3-562,8.7c0.2,9.6,0.8,20,2,31c1.1,9.8,2.5,19,4.1,27.5
		c44.2-18.4,98.5-36.2,162-45.9c99.8-15.3,237.3-15.3,387.8,45.9c2.5-8.9,4.9-19.9,6.1-32.5C562.8,294.2,562.4,282.4,561.5,272.8z"
		/>
	<path class="st4" d="M429.5,300c-17,26.8-47,44.5-81,44.5c-39.8,0-73.9-24.2-88.5-58.6c-4.9-11.5-7.5-24.1-7.5-37.4
		c0-11.3,1.9-22.1,5.5-32.2c13.2-37.2,48.7-63.8,90.5-63.8c47.7,0,87.4,34.9,94.8,80.5"/>
	<circle class="st5" cx="348.5" cy="248.5" r="63"/>
	<circle class="st6" cx="348.5" cy="248.5" r="48"/>
	
		<ellipse transform="matrix(0.7071 -0.7071 0.7071 0.7071 -42.7439 128.6626)" class="st2" cx="133.9" cy="115.9" rx="77.8" ry="50.7"/>
	<path class="st7" d="M65.9,318c-41.6-10.5-42.5-47.3-42.5-47.3l-23.9,10.8c0,0-0.8,32.1,6.1,58.5L65.9,318z"/>
</g>
</svg>
